<svg xmlns="http://www.w3.org/2000/svg" viewBox="0 0 512 512">
  <defs>
    <linearGradient id="bg" x1="0%" y1="0%" x2="100%" y2="100%">
      <stop offset="0%" stop-color="#6366f1"/>
      <stop offset="100%" stop-color="#8b5cf6"/>
    </linearGradient>
    <linearGradient id="accent" x1="0%" y1="0%" x2="100%" y2="100%">
      <stop offset="0%" stop-color="#fbbf24"/>
      <stop offset="100%" stop-color="#f59e0b"/>
    </linearGradient>
  </defs>
  <circle cx="256" cy="256" r="240" fill="url(#bg)"/>
  <g stroke="rgba(255,255,255,0.3)" stroke-width="4" stroke-linecap="round">
    <line x1="256" y1="40" x2="256" y2="60"/>
    <line x1="256" y1="452" x2="256" y2="472"/>
    <line x1="40" y1="256" x2="60" y2="256"/>
    <line x1="452" y1="256" x2="472" y2="256"/>
    <line x1="112" y1="112" x2="126" y2="126"/>
    <line x1="386" y1="386" x2="400" y2="400"/>
    <line x1="400" y1="112" x2="386" y2="126"/>
    <line x1="126" y1="386" x2="112" y2="400"/>
  </g>
  <g fill="white">
    <rect x="166" y="140" width="80" height="20" rx="4"/>
    <rect x="196" y="140" width="20" height="180" rx="4"/>
    <rect x="246" y="170" width="80" height="20" rx="4"/>
    <rect x="276" y="170" width="20" height="150" rx="4"/>
  </g>
  <circle cx="340" cy="140" r="18" fill="url(#accent)"/>
  <circle cx="370" cy="180" r="12" fill="url(#accent)" opacity="0.8"/>
  <circle cx="150" cy="340" r="14" fill="url(#accent)" opacity="0.9"/>
  <g stroke="white" stroke-width="8" stroke-linecap="round">
    <line x1="256" y1="256" x2="256" y2="160"/>
    <line x1="256" y1="256" x2="320" y2="256"/>
  </g>
  <circle cx="256" cy="256" r="12" fill="url(#accent)"/>
</svg>